<svg xmlns="http://www.w3.org/2000/svg" viewBox="0 0 720 960" role="img" aria-label="Vista previa de Clippy">
  <defs>
    <linearGradient id="bg" x1="0" y1="0" x2="1" y2="1">
      <stop offset="0" stop-color="#071114"/>
      <stop offset=".55" stop-color="#071a24"/>
      <stop offset="1" stop-color="#0b0d14"/>
    </linearGradient>
    <filter id="glow"><feGaussianBlur stdDeviation="8" result="b"/><feMerge><feMergeNode in="b"/><feMergeNode in="SourceGraphic"/></feMerge></filter>
  </defs>
  <rect width="720" height="960" fill="url(#bg)"/>
  <g opacity=".16" stroke="#ffffff">
    <path d="M0 120h720M0 240h720M0 360h720M0 480h720M0 600h720M0 720h720M0 840h720"/>
    <path d="M120 0v960M240 0v960M360 0v960M480 0v960M600 0v960"/>
  </g>
  <text x="58" y="104" fill="#3df0ff" font-family="monospace" font-size="30" font-weight="700">CLIPPY</text>
  <text x="58" y="137" fill="#ffffff" opacity=".6" font-family="monospace" font-size="17">portapapeles en la nube</text>
  <g transform="translate(74 220)" filter="url(#glow)">
    <rect width="190" height="324" rx="24" fill="#05070a" stroke="#3df0ff" stroke-width="5"/>
    <rect x="24" y="54" width="142" height="34" fill="#3df0ff" opacity=".75"/>
    <rect x="24" y="112" width="116" height="18" fill="#ffffff" opacity=".22"/>
    <rect x="24" y="146" width="138" height="18" fill="#ffffff" opacity=".22"/>
    <rect x="24" y="214" width="96" height="38" fill="#3df0ff" opacity=".9"/>
  </g>
  <g transform="translate(456 220)" filter="url(#glow)">
    <rect width="190" height="324" rx="24" fill="#05070a" stroke="#3df0ff" stroke-width="5"/>
    <rect x="24" y="54" width="142" height="34" fill="#3df0ff" opacity=".75"/>
    <rect x="24" y="112" width="116" height="18" fill="#ffffff" opacity=".22"/>
    <rect x="24" y="146" width="138" height="18" fill="#ffffff" opacity=".22"/>
    <rect x="24" y="214" width="96" height="38" fill="#3df0ff" opacity=".9"/>
  </g>
  <path d="M284 382h152" stroke="#3df0ff" stroke-width="8" stroke-dasharray="14 14"/>
  <path d="M416 354l36 28-36 28" fill="none" stroke="#3df0ff" stroke-width="8"/>
  <rect x="72" y="624" width="576" height="150" fill="#05070a" stroke="#ffffff" stroke-opacity=".14"/>
  <text x="104" y="674" fill="#ffffff" font-family="monospace" font-size="23" font-weight="700">Copias en un dispositivo</text>
  <text x="104" y="716" fill="#3df0ff" font-family="monospace" font-size="23" font-weight="700">pegas en otro</text>
  <text x="104" y="752" fill="#ffffff" opacity=".5" font-family="monospace" font-size="15">eventos en tiempo real · sincronizacion · backend</text>
</svg>
