<svg xmlns="http://www.w3.org/2000/svg" viewBox="0 0 720 960" role="img" aria-label="Vista previa de CrackingWall">
  <defs>
    <linearGradient id="bg" x1="0" y1="0" x2="1" y2="1">
      <stop offset="0" stop-color="#080b10"/>
      <stop offset=".55" stop-color="#101a12"/>
      <stop offset="1" stop-color="#0b0d14"/>
    </linearGradient>
    <linearGradient id="lime" x1="0" y1="0" x2="1" y2="1">
      <stop offset="0" stop-color="#c6ff3d"/>
      <stop offset="1" stop-color="#3df0ff"/>
    </linearGradient>
    <filter id="glow"><feGaussianBlur stdDeviation="10" result="b"/><feMerge><feMergeNode in="b"/><feMergeNode in="SourceGraphic"/></feMerge></filter>
  </defs>
  <rect width="720" height="960" fill="url(#bg)"/>
  <g opacity=".18" stroke="#ffffff">
    <path d="M0 96h720M0 192h720M0 288h720M0 384h720M0 480h720M0 576h720M0 672h720M0 768h720M0 864h720"/>
    <path d="M90 0v960M180 0v960M270 0v960M360 0v960M450 0v960M540 0v960M630 0v960"/>
  </g>
  <rect x="54" y="64" width="612" height="62" fill="#05070a" stroke="#c6ff3d" stroke-width="3"/>
  <text x="82" y="103" fill="#c6ff3d" font-family="monospace" font-size="24" font-weight="700">CRACKINGWALL</text>
  <text x="498" y="103" fill="#ffffff" opacity=".55" font-family="monospace" font-size="15">SEO LAB</text>
  <g transform="translate(54 168)">
    <rect width="180" height="260" fill="#111827" stroke="#111" stroke-width="4"/>
    <rect x="16" y="18" width="148" height="174" fill="#1b2330"/>
    <circle cx="90" cy="105" r="58" fill="none" stroke="url(#lime)" stroke-width="8" filter="url(#glow)"/>
    <path d="M38 214h104M38 235h72" stroke="#c6ff3d" stroke-width="8"/>
  </g>
  <g transform="translate(270 168)">
    <rect width="180" height="260" fill="#111827" stroke="#111" stroke-width="4"/>
    <rect x="18" y="18" width="144" height="174" fill="#15151f"/>
    <path d="M36 164L92 62l52 102z" fill="none" stroke="#3df0ff" stroke-width="8" filter="url(#glow)"/>
    <path d="M38 214h104M38 235h82" stroke="#c6ff3d" stroke-width="8"/>
  </g>
  <g transform="translate(486 168)">
    <rect width="180" height="260" fill="#111827" stroke="#111" stroke-width="4"/>
    <rect x="18" y="18" width="144" height="174" fill="#151b16"/>
    <path d="M44 58h92v92H44z" fill="none" stroke="#c6ff3d" stroke-width="8" transform="rotate(12 90 104)" filter="url(#glow)"/>
    <path d="M38 214h104M38 235h64" stroke="#c6ff3d" stroke-width="8"/>
  </g>
  <rect x="54" y="492" width="612" height="112" fill="#070a0f" stroke="#ffffff" stroke-opacity=".14"/>
  <text x="82" y="535" fill="#ffffff" font-family="monospace" font-size="21" font-weight="700">Contenido indexable + imagenes optimizadas</text>
  <text x="82" y="570" fill="#c6ff3d" font-family="monospace" font-size="17">sitemap dinamico · taxonomia · ads validation</text>
  <g transform="translate(54 656)" font-family="monospace">
    <rect width="612" height="180" fill="#05070a" stroke="#c6ff3d" stroke-opacity=".55"/>
    <text x="28" y="48" fill="#c6ff3d" font-size="20">/ traffic</text>
    <path d="M28 132C128 84 180 118 252 78s132 12 190-18 96 8 142-22" fill="none" stroke="#c6ff3d" stroke-width="6"/>
    <text x="28" y="156" fill="#ffffff" opacity=".55" font-size="15">organic discovery experiment</text>
  </g>
</svg>
